<svg width="1280" height="720" xmlns="http://www.w3.org/2000/svg" xmlns:xlink="http://www.w3.org/1999/xlink" overflow="hidden"><defs><clipPath id="clip0"><rect x="0" y="0" width="1280" height="720"/></clipPath></defs><g clip-path="url(#clip0)"><rect x="0" y="0" width="1280" height="720" fill="#FFFFFF"/><path d="M784.608 110.802 1090 109 986.066 673.084 655 674 784.608 110.802Z" fill="#FFC000" fill-rule="evenodd" fill-opacity="0.501961"/><path d="M597.5 673.5 1233.84 673.5" stroke="#4472C4" stroke-width="0.666667" stroke-miterlimit="8" fill="none" fill-rule="evenodd"/><path d="M0 0 646.435 0.95853" stroke="#4472C4" stroke-width="0.666667" stroke-miterlimit="8" fill="none" fill-rule="evenodd" transform="matrix(1 0 0 -1 580.5 110.459)"/><path d="M640 180 1137.94 272" stroke="#000000" stroke-width="6" stroke-miterlimit="8" stroke-dasharray="48 18" fill="none" fill-rule="evenodd"/><path d="M884.655 234.286C882.424 244.803 879.194 253.027 877.441 252.655L824.825 241.492C823.073 241.12 819.843 249.344 817.611 259.861 819.843 249.344 820.231 240.517 818.478 240.145L765.862 228.981C764.11 228.609 764.498 219.782 766.729 209.265" stroke="#000000" stroke-width="2" stroke-miterlimit="8" fill="none" fill-rule="evenodd"/><path d="M1061.56 263.102C1059.33 273.619 1056.1 281.843 1054.35 281.471L1009.51 271.959C1007.76 271.587 1004.53 279.811 1002.3 290.328 1004.53 279.811 1004.92 270.984 1003.17 270.612L958.336 261.1C956.583 260.728 956.971 251.901 959.203 241.384" stroke="#000000" stroke-width="2" stroke-miterlimit="8" fill="none" fill-rule="evenodd"/><path d="M820.487 520.131C818.635 530.722 815.703 539.057 813.938 538.748L760.955 529.484C759.19 529.175 756.258 537.51 754.406 548.101 756.258 537.51 756.329 528.675 754.564 528.366L701.581 519.102C699.816 518.793 699.886 509.957 701.738 499.367" stroke="#000000" stroke-width="2" stroke-miterlimit="8" fill="none" fill-rule="evenodd"/><path d="M1006.37 552.393C1004.48 562.978 1001.53 571.304 999.763 570.99L954.643 562.961C952.879 562.647 949.922 570.973 948.038 581.558 949.922 570.973 950.019 562.138 948.255 561.824L903.134 553.794C901.37 553.48 901.467 544.645 903.351 534.06" stroke="#000000" stroke-width="2" stroke-miterlimit="8" fill="none" fill-rule="evenodd"/><path d="M896.382 215.797C898.397 205.236 901.458 196.948 903.218 197.283L924.536 201.352C926.296 201.688 929.356 193.4 931.372 182.839 929.356 193.4 929.149 202.233 930.909 202.569L952.227 206.638C953.987 206.974 953.779 215.807 951.764 226.367" stroke="#000000" stroke-width="2" stroke-miterlimit="8" fill="none" fill-rule="evenodd"/><path d="M840.41 508.027C842.426 497.466 845.487 489.178 847.247 489.514L868.564 493.582C870.324 493.918 873.385 485.63 875.401 475.069 873.385 485.63 873.178 494.463 874.938 494.799L896.255 498.868C898.015 499.204 897.808 508.037 895.792 518.598" stroke="#000000" stroke-width="2" stroke-miterlimit="8" fill="none" fill-rule="evenodd"/><text font-family="Calibri,Calibri_MSFontService,sans-serif" font-weight="400" font-size="24" transform="matrix(0.980204 0.197988 -0.197988 0.980204 790.252 285)">2 m <tspan font-size="24" x="-18.8177" y="28.2856">@ 0 g/t</tspan></text><text font-family="Calibri,Calibri_MSFontService,sans-serif" font-weight="400" font-size="24" transform="matrix(0.974891 0.222683 -0.222683 0.974891 983.958 328)">2 m <tspan font-size="24" x="-18.6987" y="28.8893">@ 0 g/t</tspan></text><text font-family="Calibri,Calibri_MSFontService,sans-serif" font-weight="400" font-size="24" transform="matrix(0.980204 0.197988 -0.197988 0.980204 719.717 574)">2 m <tspan font-size="24" x="-18.6197" y="29.2658">@ 0 g/t</tspan></text><text font-family="Calibri,Calibri_MSFontService,sans-serif" font-weight="400" font-size="24" transform="matrix(0.974891 0.222683 -0.222683 0.974891 913.423 617)">2 m <tspan font-size="24" x="-18.6987" y="28.8893">@ 0 g/t</tspan></text><text font-family="Calibri,Calibri_MSFontService,sans-serif" font-weight="400" font-size="24" transform="matrix(0.985929 0.167165 -0.167165 0.985929 921.997 142)">1 m <tspan font-size="24" x="-18.5848" y="29.5221">@ 2 g/t</tspan><tspan font-size="24" x="-3.26845" y="292.664">1 m </tspan><tspan font-size="24" x="-27.937" y="322.204">@ 90 g/t</tspan></text><path d="M787 108C787 97.5066 788.418 88.9999 790.166 88.9999L935.333 88.9999C937.082 88.9999 938.5 80.4932 938.5 69.9997 938.5 80.4932 939.918 88.9999 941.666 88.9999L1086.83 88.9999C1088.58 88.9999 1090 97.5066 1090 108" stroke="#000000" stroke-width="2" stroke-miterlimit="8" fill="none" fill-rule="evenodd"/><path d="M1146 110C1156.77 110 1165.5 111.455 1165.5 113.25L1165.5 388.25C1165.5 390.045 1174.23 391.5 1185 391.5 1174.23 391.5 1165.5 392.955 1165.5 394.75L1165.5 669.75C1165.5 671.545 1156.77 673 1146 673" stroke="#000000" stroke-width="2" stroke-miterlimit="8" fill="none" fill-rule="evenodd"/><text font-family="Calibri,Calibri_MSFontService,sans-serif" font-weight="400" font-size="24" transform="translate(919.746 43)">5m <tspan font-size="24" x="294.52" y="353">20 m </tspan></text><path d="M580 467 1077.94 559" stroke="#000000" stroke-width="6" stroke-miterlimit="8" stroke-dasharray="48 18" fill="none" fill-rule="evenodd"/><path d="M388 111 386.435 141.48 380.962 168.921C376.148 180.99 379.447 171.882 374.577 197.277L374.577 237.525C374.577 247.289 374.638 239.966 373.665 259.478L374.577 291.493C374.054 296.213 373.046 306.673 371.841 310.702 371.059 313.314 369.408 315.58 368.192 318.02L361.807 332.655 358.158 344.546 354.509 356.438C354.509 356.438 353.123 362.506 352.685 365.585 351.906 371.051 351.469 376.561 350.861 382.049L342.651 448.823C342.651 458.103 343.779 453.417 338.09 462.544L322.583 493.644C322.583 493.644 319.136 500.196 318.022 503.706 316.992 506.955 316.806 510.414 316.198 513.768L314.373 525.659C312.992 539.516 314.249 531.846 309.813 548.527L303.427 570.48C300.109 582.128 302.593 574.898 294.306 591.519L284.272 608.898C277.999 615.189 281.609 611.144 274.238 621.704L271.501 639.999 269.677 652.804 262.301 673.657 204 674 252.345 548.527 252.345 539.38 269.677 475.35 273.326 465.288 286.096 411.32 291.569 402.173 298.866 360.096 299.779 351.864 317.11 293.322 318.022 263.137 321.671 213.742C321.671 209.935 321.575 213.117 324.407 204.595L326.232 180.813 327.144 172.58 334.441 139.651 335.354 111.409 350.198 111.224 388 111Z" fill="#FFC000" fill-rule="evenodd" fill-opacity="0.501961"/><path d="M515 110 411.066 674.084 80 675 209.608 111.802 350.956 110.968 336.073 111.154 335.158 139.42 327.842 172.379 326.927 180.619 325.098 204.422C322.258 212.952 322.355 209.767 322.355 213.577L318.697 263.016 317.782 293.228 300.406 351.821 299.491 360.061 292.175 402.175 286.687 411.33 273.884 465.346 270.226 475.416 252.849 539.503 252.849 548.658 204.378 674.242 262.831 673.898 270.226 653.027 272.055 640.21 274.798 621.9C282.189 611.33 278.569 615.378 284.858 609.082L294.918 591.687C303.227 575.052 300.737 582.288 304.064 570.63L310.466 548.658C314.913 531.962 313.653 539.639 315.038 525.77L316.867 513.868C317.477 510.511 317.663 507.049 318.697 503.797 319.813 500.284 323.269 493.727 323.269 493.727L338.817 462.599C344.52 453.463 343.389 458.154 343.389 448.866L351.62 382.033C352.23 376.54 352.668 371.025 353.449 365.554 353.889 362.473 355.278 356.399 355.278 356.399L358.937 344.497 362.595 332.595 368.997 317.947C370.216 315.505 371.871 313.237 372.655 310.623 373.863 306.59 374.874 296.121 375.398 291.397L374.484 259.354C375.459 239.824 375.398 247.154 375.398 237.381L375.398 197.098C380.281 171.681 376.974 180.797 381.8 168.717L387.287 141.251 388.856 110.745 515 110Z" fill="#70AD47" fill-rule="evenodd" fill-opacity="0.501961"/><path d="M388 111 387.987 111.527 351 112 388 111Z" fill="#70AD47" fill-rule="evenodd" fill-opacity="0.501961"/><path d="M22.5001 673.5 658.843 673.5" stroke="#4472C4" stroke-width="0.666667" stroke-miterlimit="8" fill="none" fill-rule="evenodd"/><path d="M0 0 646.435 0.95853" stroke="#4472C4" stroke-width="0.666667" stroke-miterlimit="8" fill="none" fill-rule="evenodd" transform="matrix(1 0 0 -1 5.50005 111.459)"/><path d="M65 181 562.943 273" stroke="#000000" stroke-width="6" stroke-miterlimit="8" stroke-dasharray="48 18" fill="none" fill-rule="evenodd"/><path d="M309.273 235.245C307.042 245.762 303.812 253.986 302.059 253.614L249.444 242.45C247.691 242.078 244.461 250.303 242.23 260.82 244.461 250.303 244.849 241.475 243.096 241.103L190.481 229.94C188.728 229.568 189.116 220.74 191.348 210.223" stroke="#000000" stroke-width="2" stroke-miterlimit="8" fill="none" fill-rule="evenodd"/><path d="M486.178 264.06C483.947 274.577 480.717 282.802 478.964 282.43L434.133 272.918C432.38 272.546 429.15 280.77 426.919 291.287 429.15 280.77 429.538 271.943 427.785 271.571L382.954 262.059C381.202 261.687 381.59 252.86 383.821 242.342" stroke="#000000" stroke-width="2" stroke-miterlimit="8" fill="none" fill-rule="evenodd"/><path d="M245.106 521.09C243.254 531.68 240.322 540.016 238.557 539.707L185.574 530.442C183.809 530.134 180.877 538.469 179.025 549.059 180.877 538.469 180.947 529.633 179.182 529.325L126.199 520.06C124.434 519.751 124.504 510.916 126.356 500.326" stroke="#000000" stroke-width="2" stroke-miterlimit="8" fill="none" fill-rule="evenodd"/><path d="M430.986 553.352C429.103 563.937 426.145 572.263 424.381 571.949L379.261 563.919C377.497 563.605 374.54 571.932 372.656 582.516 374.54 571.932 374.637 563.096 372.873 562.782L327.753 554.753C325.989 554.439 326.086 545.604 327.969 535.019" stroke="#000000" stroke-width="2" stroke-miterlimit="8" fill="none" fill-rule="evenodd"/><path d="M321 216.755C323.016 206.195 326.076 197.906 327.836 198.242L349.154 202.311C350.914 202.647 353.975 194.358 355.99 183.798 353.975 194.358 353.768 203.191 355.528 203.527L376.845 207.596C378.605 207.932 378.398 216.765 376.382 227.326" stroke="#000000" stroke-width="2" stroke-miterlimit="8" fill="none" fill-rule="evenodd"/><path d="M265.028 508.985C267.044 498.425 270.105 490.136 271.865 490.472L293.182 494.541C294.942 494.877 298.003 486.588 300.019 476.028 298.003 486.588 297.796 495.422 299.556 495.758L320.874 499.826C322.634 500.162 322.426 508.996 320.411 519.556" stroke="#000000" stroke-width="2" stroke-miterlimit="8" fill="none" fill-rule="evenodd"/><text font-family="Calibri,Calibri_MSFontService,sans-serif" font-weight="400" font-size="24" transform="matrix(0.980204 0.197988 -0.197988 0.980204 214.87 286)">2 m <tspan font-size="24" x="-18.8176" y="28.2856">@ 0 g/t</tspan></text><text font-family="Calibri,Calibri_MSFontService,sans-serif" font-weight="400" font-size="24" transform="matrix(0.974891 0.222683 -0.222683 0.974891 408.576 329)">2 m <tspan font-size="24" x="-18.6986" y="28.8892">@ 0 g/t</tspan></text><text font-family="Calibri,Calibri_MSFontService,sans-serif" font-weight="400" font-size="24" transform="matrix(0.980204 0.197988 -0.197988 0.980204 144.336 575)">2 m <tspan font-size="24" x="-18.8176" y="28.2856">@ 0 g/t</tspan></text><text font-family="Calibri,Calibri_MSFontService,sans-serif" font-weight="400" font-size="24" transform="matrix(0.974891 0.222683 -0.222683 0.974891 338.042 618)">2 m <tspan font-size="24" x="-18.6986" y="28.8892">@ 0 g/t</tspan></text><text font-family="Calibri,Calibri_MSFontService,sans-serif" font-weight="400" font-size="24" transform="matrix(0.985929 0.167165 -0.167165 0.985929 346.616 143)">1 m <tspan font-size="24" x="-18.5848" y="29.5221">@ 2 g/t</tspan><tspan font-size="24" x="-3.26842" y="292.664">1 m </tspan><tspan font-size="24" x="-27.937" y="322.204">@ 90 g/t</tspan></text><path d="M212 109C212 98.5066 213.418 89.9999 215.166 89.9999L360.333 89.9999C362.082 89.9999 363.5 81.4932 363.5 70.9997 363.5 81.4932 364.918 89.9999 366.666 89.9999L511.833 89.9999C513.582 89.9999 515 98.5066 515 109" stroke="#000000" stroke-width="2" stroke-miterlimit="8" fill="none" fill-rule="evenodd"/><text font-family="Calibri,Calibri_MSFontService,sans-serif" font-weight="400" font-size="24" transform="translate(344.364 44)">5m </text><path d="M5 468 502.943 560" stroke="#000000" stroke-width="6" stroke-miterlimit="8" stroke-dasharray="48 18" fill="none" fill-rule="evenodd"/><text font-family="Calibri,Calibri_MSFontService,sans-serif" font-weight="400" font-size="24" transform="translate(37.924 706)">a) Estimating in a narrow vein and <tspan font-size="24" x="336.967" y="0">applying </tspan>dilution<tspan font-size="24" x="582.723" y="-1">b) Estimating in the vein with minimum width</tspan></text></g></svg>